<?xml version="1.0" encoding="UTF-8" standalone="no"?>
<!-- Created with Inkscape (http://www.inkscape.org/) -->

<svg
   xmlns:dc="http://purl.org/dc/elements/1.1/"
   xmlns:cc="http://creativecommons.org/ns#"
   xmlns:rdf="http://www.w3.org/1999/02/22-rdf-syntax-ns#"
   xmlns:svg="http://www.w3.org/2000/svg"
   xmlns="http://www.w3.org/2000/svg"
   xmlns:sodipodi="http://sodipodi.sourceforge.net/DTD/sodipodi-0.dtd"
   xmlns:inkscape="http://www.inkscape.org/namespaces/inkscape"
   width="48"
   height="48"
   id="svg2"
   version="1.1"
   inkscape:version="0.48.5 r10040"
   sodipodi:docname="logo.svg">
  <defs
     id="defs4" />
  <sodipodi:namedview
     id="base"
     pagecolor="#ffffff"
     bordercolor="#666666"
     borderopacity="1.0"
     inkscape:pageopacity="0.0"
     inkscape:pageshadow="2"
     inkscape:zoom="11.433416"
     inkscape:cx="46.178629"
     inkscape:cy="26.425962"
     inkscape:document-units="px"
     inkscape:current-layer="layer1"
     showgrid="false"
     inkscape:window-width="1920"
     inkscape:window-height="1025"
     inkscape:window-x="-2"
     inkscape:window-y="-3"
     inkscape:window-maximized="1" />
  <metadata
     id="metadata7">
    <rdf:RDF>
      <cc:Work
         rdf:about="">
        <dc:format>image/svg+xml</dc:format>
        <dc:type
           rdf:resource="http://purl.org/dc/dcmitype/StillImage" />
        <dc:title></dc:title>
      </cc:Work>
    </rdf:RDF>
  </metadata>
  <g
     inkscape:label="Layer 1"
     inkscape:groupmode="layer"
     id="layer1"
     transform="translate(0,-1004.3622)">
    <g
       id="g4170"
       transform="matrix(0.76786516,0,0,0.76786516,5.571236,238.62093)">
      <path
         inkscape:connector-curvature="0"
         id="path4137"
         d="m 24.107329,1004.7526 c -0.233361,10e-5 -0.46906,0 -0.704089,0.01 -6.242727,0.1854 -12.426885,2.7645 -16.6577097,7.3672 l 0,0 c -3.9123759,3.9771 -6.09609841,9.2996 -6.48276814,14.7472 l -0.008579,0.1588 0.15884884,0 3.1684,0 0.1373826,0 0.012878,-0.1374 c 0.3422075,-3.8058 1.7675821,-7.5172 4.1300826,-10.5484 4.5033258,1.7295 9.7803568,2.7391 15.4427268,2.7391 6.08425,0 11.740693,-1.151 16.451635,-3.1255 2.558756,3.1013 4.168072,6.9511 4.495005,10.9348 l 0.01287,0.1374 0.137384,0 3.185572,0 0.158849,0 -0.0086,-0.1588 c -0.541542,-8.3121 -5.747316,-16.1462 -13.437791,-19.7832 -0.0017,-8e-4 -0.0026,0 -0.0043,0 -3.168077,-1.5854 -6.676636,-2.3426 -10.18782,-2.3398 z m -0.377804,3.5763 c 0.581749,-0.01 1.162263,0.01 1.743049,0.047 0.579452,0.04 1.156824,0.1033 1.730169,0.1889 l 0.0043,0 c 0.575142,0.086 1.147439,0.1982 1.712997,0.3306 0.565559,0.1324 1.126633,0.289 1.678651,0.4679 0.551857,0.1789 1.092598,0.3798 1.627131,0.6054 0.534736,0.2257 1.058945,0.4751 1.57132,0.747 0.512726,0.2721 1.01569,0.5657 1.502629,0.8844 0.485705,0.318 0.955967,0.6612 1.41247,1.0261 9.61e-4,7e-4 0.0033,-7e-4 0.0043,0 0.270557,0.2061 0.535919,0.4202 0.794247,0.6397 l 0.0644,0.055 -0.02147,0.086 -0.0086,0.03 -0.02147,0.064 -0.0644,0.025 c -4.085745,1.5563 -8.939653,2.46 -14.15476,2.46 -4.818389,0 -9.332998,-0.772 -13.214544,-2.1165 l -0.06869,-0.021 -0.02147,-0.068 -0.0086,-0.03 -0.02147,-0.086 0.0644,-0.056 c 0.265615,-0.2333 0.534478,-0.4631 0.815713,-0.6827 8.24e-4,-7e-4 0.0035,7e-4 0.0043,0 0.447286,-0.3755 0.913129,-0.7266 1.391004,-1.056 0.478682,-0.3301 0.966624,-0.639 1.472576,-0.9231 0.506062,-0.2842 1.030193,-0.5436 1.558441,-0.7814 0.528436,-0.2378 1.062621,-0.4522 1.609959,-0.644 0.547256,-0.1917 1.103797,-0.3611 1.665771,-0.5066 0.561963,-0.1456 1.131747,-0.2698 1.70441,-0.3692 0.572704,-0.099 1.150851,-0.1744 1.730169,-0.2275 0.579175,-0.054 1.160952,-0.084 1.743049,-0.091 z"
         style="font-size:medium;font-style:normal;font-variant:normal;font-weight:normal;font-stretch:normal;text-indent:0;text-align:start;text-decoration:none;line-height:normal;letter-spacing:normal;word-spacing:normal;text-transform:none;direction:ltr;block-progression:tb;writing-mode:lr-tb;text-anchor:start;baseline-shift:baseline;color:#000000;fill:#00ffff;stroke:none;stroke-width:2;marker:none;visibility:visible;display:inline;overflow:visible;enable-background:accumulate;font-family:Sans;-inkscape-font-specification:Sans" />
      <path
         inkscape:connector-curvature="0"
         id="path3913"
         d="m 0.4244858,1030.3231 c 0.28422404,4.0646 1.5839426,8.0568 3.9540597,11.4543 5.2836969,8.114 16.0425985,12.2741 25.5275105,9.6813 9.743585,-2.369 17.052257,-11.3964 17.692377,-21.1356 l -3.164107,0 c -0.401642,4.9572 -2.872739,9.6271 -6.560046,12.9998 l 0,-12.4588 -3.692172,0 0,0.1888 -0.124504,-0.2447 -4.962967,8.8355 -4.756893,-8.7668 -0.06869,0.1417 0,-0.279 -3.803796,0 0,17.6279 c -2.156514,-0.387 -4.252874,-1.1141 -6.186536,-2.1338 l 0,-15.7647 -4.009873,0 0,13.0257 c -1.9844856,-1.7278 -3.6267081,-3.832 -4.7525982,-6.2252 -1.1145935,-2.1796 -1.7384203,-4.5465 -1.9362439,-6.9464 l -3.15552017,0 z m 23.8445672,7.4229 3.739399,5.9762 2.71761,-0.068 3.456046,-4.6582 0,7.0237 c -1.865536,1.0654 -3.90665,1.8378 -6.057739,2.2325 -1.273347,0.2792 -2.565879,0.4186 -3.855316,0.4336 l 0,-10.9392 z"
         style="fill:#00ffff;stroke:none" />
    </g>
  </g>
</svg>
